<svg xmlns="http://www.w3.org/2000/svg" width="300" height="270" viewBox="0 0 300 270">
  <path fill="currentColor" d="M36.2765957,0 C40.9574702,0 44.6808372,0.708654331 47.4468085,2.12598425 C50.7801585,3.82678016 53.3510548,6.16533945 55.1595745,9.14173228 C56.9680941,12.1181251 57.8723404,15.4488005 57.8723404,19.1338583 C57.8723404,22.6063166 56.9503638,25.8129774 55.106383,28.753937 C53.2624021,31.6948966 50.7446968,34.0157395 47.5531915,35.7165354 C51.3829979,37.0629989 54.609916,39.4015581 57.2340426,42.7322835 C59.8581691,46.0630088 61.1702128,49.8188767 61.1702128,54 C61.1702128,57.6850578 60.2305059,61.0688822 58.3510638,64.1515748 C56.4716218,67.2342674 53.9716468,69.6614085 50.8510638,71.4330709 C49.2907723,72.2834688 47.5532011,72.9212577 45.6382979,73.3464567 C43.7233947,73.7716557 41.1702287,73.984252 37.9787234,73.984252 L5.21276596,73.984252 L5.21276596,0 L36.2765957,0 Z" />
  <path fill="#ffffff" d="M107.765957,0 L111.914894,0 L142.340426,73.984252 L138.085106,73.984252 L128.085106,49.5354331 L91.5957447,49.5354331 L81.4893617,73.984252 L77.3404255,73.984252 L107.765957,0 Z M93.1914894,45.7086614 L126.489362,45.7086614 L109.787234,5.1023622 L93.1914894,45.7086614 Z M204.574468,2.44488189 C208.829809,4.42914378 212.180839,7.37005925 214.62766,11.2677165 C217.07448,15.1653738 218.297872,19.4881652 218.297872,24.2362205 C218.297872,29.7638072 216.613492,34.7066711 213.244681,39.0649606 C209.87587,43.4232501 205.567402,46.3110165 200.319149,47.7283465 L219.148936,73.984252 L214.468085,73.984252 L196.276596,48.4724409 L192.87234,48.5787402 L166.170213,48.5787402 L166.170213,73.984252 L162.234043,73.984252 L162.234043,0 L190.425532,0 C193.546115,0 196.223393,0.194879941 198.457447,0.584645669 C200.691501,0.974411398 202.730487,1.59448394 204.574468,2.44488189 Z M193.93617,44.6456693 C197.624132,44.6456693 201.028353,43.7244187 204.148936,41.8818898 C207.269519,40.0393609 209.751764,37.5590707 211.595745,34.4409449 C213.439726,31.3228191 214.361702,27.9212783 214.361702,24.2362205 C214.361702,20.1259637 213.280153,16.4055285 211.117021,13.0748031 C208.95389,9.74407783 205.957466,7.26378768 202.12766,5.63385827 C199.361688,4.49999433 195.461018,3.93307087 190.425532,3.93307087 L166.170213,3.93307087 L166.170213,44.6456693 L193.93617,44.6456693 Z M5.63829787,142.795276 C5.63829787,147.472464 6.82622926,151.795256 9.20212766,155.76378 C11.5780261,159.732303 14.7694835,162.885815 18.7765957,165.224409 C22.783708,167.563004 27.1276362,168.732283 31.8085106,168.732283 C36.6312298,168.732283 40.9928883,167.7756 44.893617,165.862205 C48.7943457,163.948809 51.861691,161.291356 54.0957447,157.889764 C56.3297984,154.488172 57.4822691,150.661439 57.5531915,146.409449 L61.3829787,146.409449 C61.3829787,151.299237 60.0886654,155.746043 57.5,159.75 C54.9113346,163.753957 51.3652707,166.907469 46.8617021,169.21063 C42.3581335,171.513791 37.3404532,172.665354 31.8085106,172.665354 C26.4184128,172.665354 21.4184628,171.318911 16.8085106,168.625984 C12.1985585,165.933057 8.54611277,162.301204 5.85106383,157.730315 C3.15601489,153.159426 1.80851064,148.181129 1.80851064,142.795276 L1.80851064,125.362205 C1.80851064,119.976351 3.13828457,114.998054 5.79787234,110.427165 C8.45746011,105.856276 12.0744452,102.224423 16.6489362,99.5314961 C21.2234271,96.8385692 26.2056468,95.492126 31.5957447,95.492126 C37.0567649,95.492126 42.0389846,96.6436893 46.5425532,98.9468504 C51.0461218,101.250012 54.609916,104.403523 57.2340426,108.40748 C59.8581691,112.411437 61.1702128,116.858243 61.1702128,121.748031 L57.3404255,121.748031 C57.2695032,117.496042 56.0993021,113.669308 53.8297872,110.267717 C51.5602723,106.866125 48.4929271,104.208671 44.6276596,102.295276 C40.762392,100.38188 36.4184638,99.4251969 31.5957447,99.4251969 C26.9148702,99.4251969 22.5886723,100.594476 18.6170213,102.933071 C14.6453702,105.271665 11.4893734,108.425177 9.14893617,112.393701 C6.80849894,116.362225 5.63829787,120.685016 5.63829787,125.362205 L5.63829787,142.795276 Z M107.765957,97.0866142 L111.914894,97.0866142 L142.340426,171.070866 L138.085106,171.070866 L128.085106,146.622047 L91.5957447,146.622047 L81.4893617,171.070866 L77.3404255,171.070866 L107.765957,97.0866142 Z M93.1914894,142.795276 L126.489362,142.795276 L109.787234,102.188976 L93.1914894,142.795276 Z M162.553191,171.070866 L158.617021,171.070866 L158.617021,97.0866142 L162.87234,97.0866142 L188.723404,142.688976 L214.468085,97.0866142 L218.404255,97.0866142 L218.404255,171.070866 L214.468085,171.070866 L214.468085,104.952756 L190.531915,147.153543 L186.808511,147.153543 L162.553191,104.42126 L162.553191,171.070866 Z M246.595745,171.070866 L242.659574,171.070866 L242.659574,97.0866142 L272.446809,97.0866142 C277.411372,97.0866142 282.003525,98.1495957 286.223404,100.275591 C290.443284,102.401585 293.794314,105.413366 296.276596,109.311024 C298.758878,113.208681 300,117.708636 300,122.811024 C300,127.700812 298.741147,132.200767 296.223404,136.311024 C293.705661,140.42128 290.28371,143.574792 285.957447,145.771654 C282.198563,147.685049 277.695062,148.641732 272.446809,148.641732 L246.595745,148.641732 L246.595745,171.070866 Z M246.595745,144.708661 L272.446809,144.708661 C276.985838,144.708661 280.709205,144.000007 283.617021,142.582677 C287.375905,140.811015 290.39006,138.153561 292.659574,134.610236 C294.929089,131.066911 296.06383,127.13388 296.06383,122.811024 C296.06383,118.559034 294.929089,114.661435 292.659574,111.11811 C290.39006,107.574785 287.340445,104.917332 283.510638,103.145669 C280.602822,101.728339 276.914916,101.019685 272.446809,101.019685 L246.595745,101.019685 L246.595745,144.708661 Z M30.5319149,196.511811 C25.7801181,196.511811 21.3652686,197.698807 17.287234,200.072835 C13.2091995,202.446862 9.96455106,205.671239 7.55319149,209.746063 C5.14183191,213.820887 3.93617021,218.267692 3.93617021,223.086614 L3.93617021,237.11811 C3.93617021,242.149631 4.64538298,246.295259 6.06382979,249.555118 C8.04965532,254.16144 11.0638096,257.917308 15.106383,260.822835 C19.1489564,263.728361 23.6879181,265.358266 28.7234043,265.712598 L28.7234043,231.165354 L61.1702128,231.165354 L61.1702128,238.181102 C61.1702128,242.716558 60.4964606,246.755888 59.1489362,250.299213 C56.9503436,256.181132 53.2624372,260.893683 48.0851064,264.437008 C42.9077755,267.980333 37.0567702,269.751969 30.5319149,269.751969 C24.3616713,269.751969 18.7411601,268.068914 13.6702128,264.702756 C8.59926543,261.336597 4.89362872,256.854359 2.55319149,251.255906 C0.851055319,247.287382 0,242.57483 0,237.11811 L0,223.086614 C0,217.559027 1.36523457,212.456716 4.09574468,207.779528 C6.82625479,203.102339 10.5318915,199.39962 15.212766,196.67126 C19.8936404,193.9429 24.9999723,192.57874 30.5319149,192.57874 C35.141867,192.57874 39.361683,193.340544 43.1914894,194.864173 C47.0212957,196.387803 50.2836745,198.602348 52.9787234,201.507874 C55.177316,203.917335 56.9680782,206.610221 58.3510638,209.586614 C59.7340495,212.563007 60.4255319,215.574788 60.4255319,218.622047 L56.5957447,218.622047 C56.5248223,215.999987 55.8688005,213.413399 54.6276596,210.862205 C53.3865186,208.311011 51.8085202,206.007884 49.893617,203.952756 C45.1418202,198.992101 38.687984,196.511811 30.5319149,196.511811 Z M57.2340426,234.992126 L32.5531915,234.992126 L32.5531915,265.712598 C37.6596,265.358266 42.2517527,263.746077 46.3297872,260.875984 C50.4078218,258.005891 53.4042457,254.196874 55.3191489,249.448819 C56.5957511,246.118094 57.2340426,242.362226 57.2340426,238.181102 L57.2340426,234.992126 Z" />
  <polygon fill="currentColor" points="80.957 268.051 80.957 194.067 85.106 194.067 136.809 244.346 136.809 194.067 140.745 194.067 140.745 268.051" />
  <path fill="#ffffff" d="M153.617021,194.066929 L223.404255,194.066929 L188.510638,269.645669 L153.617021,194.066929 Z M188.510638,260.291339 L217.340426,198 L159.787234,198 L188.510638,260.291339 Z" />
</svg>
