<svg xmlns="http://www.w3.org/2000/svg" width="397" height="348" viewBox="0 0 397 348"><path fill="#ffffff" fill-rule="evenodd" d="M1301.04636,286.25 L1237.95369,286.25 C1237.98369,286.328206 1238,286.412355 1238,286.5 C1238,286.914 1237.63284,287.25 1237.18046,287.25 L1196.81954,287.25 C1196.36716,287.25 1196,286.914 1196,286.5 C1196,286.086 1196.36716,285.75 1196.81954,285.75 L1204.0465,285.75 C1204.01639,285.671794 1204,285.587645 1204,285.5 C1204,285.086 1204.36564,284.75 1204.81616,284.75 L1343.18058,284.75 C1343.63436,284.75 1344,285.086 1344,285.5 C1344,285.587645 1343.98376,285.671794 1343.95385,285.75 L1486.18629,285.75 C1486.63546,285.75 1487,286.086 1487,286.5 C1487,286.914 1486.63546,287.25 1486.18629,287.25 L1301.81371,287.25 C1301.36454,287.25 1301,286.914 1301,286.5 C1301,286.412355 1301.01634,286.328206 1301.04636,286.25 Z M1292.96602,193.715 C1292.86565,194.02433 1292.55433,194.25 1292.18616,194.25 L1196.81384,194.25 C1196.44567,194.25 1196.13435,194.02433 1196.03398,193.715 L1131.63449,193.715 C1131.18535,193.715 1130.82083,193.379 1130.82083,192.965 C1130.82083,192.893 1130.87942,192.848 1130.89895,192.785 L1040.81366,192.785 C1040.36452,192.785 1040,192.449 1040,192.035 C1040,191.621 1040.36452,191.285 1040.81366,191.285 L1272.59963,191.285 C1273.05202,191.285 1273.41329,191.621 1273.41329,192.035 C1273.41329,192.107 1273.3547,192.152 1273.33517,192.215 L1306.40236,192.215 C1306.38608,192.149 1306.32424,192.104 1306.32424,192.035 C1306.32424,191.621 1306.68876,191.285 1307.1379,191.285 L1343.18308,191.285 C1343.63548,191.285 1343.99675,191.624 1344,192.038 C1344,192.218 1343.90887,192.371 1343.7917,192.503 C1343.90887,192.632 1344,192.782 1344,192.965 C1344,193.379 1343.63873,193.715 1343.18634,193.715 L1292.96602,193.715 Z M1243,100.5 C1243,100.914 1242.63875,101.25 1242.18637,101.25 L1040.81363,101.25 C1040.36451,101.25 1040,100.914 1040,100.5 C1040,100.086 1040.36451,99.75 1040.81363,99.75 L1242.18637,99.75 C1242.63875,99.75 1243,100.086 1243,100.5 Z M1343.14649,99.75 C1343.62104,99.75 1344,100.086 1344,100.5 C1344,100.914 1343.62104,101.25 1343.14649,101.25 L1333.85351,101.25 C1333.38237,101.25 1333,100.914 1333,100.5 C1333,100.086 1333.38237,99.75 1333.85351,99.75 L1343.14649,99.75 Z M1040.81678,147.25 C1040.36592,147.25 1040,146.914 1040,146.5 C1040,146.086 1040.36592,145.75 1040.81678,145.75 L1141.18322,145.75 C1141.63408,145.75 1142,146.086 1142,146.5 C1142,146.914 1141.63408,147.25 1141.18322,147.25 L1040.81678,147.25 Z M1343.18151,145.75 C1343.63478,145.75 1344,146.086 1344,146.5 C1344,146.914 1343.63804,147.25 1343.18477,147.25 L1232.81523,147.25 C1232.36196,147.25 1232,146.914 1232,146.5 C1232,146.086 1232.36196,145.75 1232.81523,145.75 L1343.18151,145.75 Z M1041,239.5 C1041,239.086 1041.36381,238.75 1041.81207,238.75 L1261.18793,238.75 C1261.63619,238.75 1262,239.086 1262,239.5 C1262,239.914 1261.63619,240.25 1261.18793,240.25 L1041.81207,240.25 C1041.36381,240.25 1041,239.914 1041,239.5 Z M1343.18796,238.75 C1343.63946,238.75 1344,239.086 1344,239.5 C1344,239.914 1343.63946,240.25 1343.18796,240.25 L1306.81204,240.25 C1306.36054,240.25 1306,239.914 1306,239.5 C1306,239.086 1306.36054,238.75 1306.81204,238.75 L1343.18796,238.75 Z M1159.18657,284.75 C1159.63558,284.75 1160,285.086 1160,285.5 C1160,285.914 1159.63558,286.25 1159.18657,286.25 L1040.81343,286.25 C1040.36442,286.25 1040,285.914 1040,285.5 C1040,285.086 1040.36442,284.75 1040.81343,284.75 L1159.18657,284.75 Z M1040.82926,332.25 C1040.37151,332.25 1040,331.914 1040,331.5 C1040,331.086 1040.37151,330.75 1040.82926,330.75 L1058.17074,330.75 C1058.62849,330.75 1059,331.086 1059,331.5 C1059,331.914 1058.62849,332.25 1058.17074,332.25 L1040.82926,332.25 Z M1344.18264,330.75 C1344.63528,330.75 1345,331.086 1345,331.5 C1345,331.914 1344.63854,332.25 1344.1859,332.25 L1104.8141,332.25 C1104.36472,332.25 1104,331.914 1104,331.5 C1104,331.086 1104.36472,330.75 1104.8141,330.75 L1344.18264,330.75 Z M1228,130.5 C1228,130.911 1227.63411,131.25 1227.18329,131.25 L1040.81671,131.25 C1040.36589,131.25 1040,130.914 1040,130.5 C1040,130.086 1040.36589,129.75 1040.81671,129.75 L1227.18329,129.75 C1227.63411,129.75 1228,130.086 1228,130.5 Z M1343.18006,129.75 C1343.63413,129.75 1344,130.086 1344,130.5 C1344,130.914 1343.6374,131.25 1343.18332,131.25 L1260.81668,131.25 C1260.36587,131.25 1260,130.914 1260,130.5 C1260,130.086 1260.36587,129.75 1260.81668,129.75 L1343.18006,129.75 Z M1476,321.5 C1476,321.914 1475.63773,322.25 1475.18407,322.25 L1197.81593,322.25 C1197.36554,322.25 1197,321.914 1197,321.5 C1197,321.086 1197.36554,320.75 1197.81593,320.75 L1475.18407,320.75 C1475.63773,320.75 1476,321.086 1476,321.5 Z M1229.18588,382.75 C1229.63708,382.75 1230,383.086 1230,383.5 C1230,383.914 1229.63381,384.25 1229.18261,384.25 L1196.81739,384.25 C1196.36619,384.25 1196,383.914 1196,383.5 C1196,383.086 1196.36619,382.75 1196.81739,382.75 L1229.18588,382.75 Z M1499.185,382.75 C1499.63814,382.75 1500,383.086 1500,383.5 C1500,383.914 1499.63814,384.25 1499.185,384.25 L1243.815,384.25 C1243.36512,384.25 1243,383.914 1243,383.5 C1243,383.086 1243.36512,382.75 1243.815,382.75 L1499.185,382.75 Z M1500,444.8505 C1500,445.1685 1499.7559,445.3905 1499.44996,445.4985 C1499.7559,445.6095 1500,445.8345 1500,446.1495 C1500,446.5635 1499.63873,446.8995 1499.18633,446.8995 L1196.81367,446.8995 C1196.36452,446.8995 1196,446.5635 1196,446.1495 C1196,445.8315 1196.2441,445.6095 1196.55004,445.4985 C1196.2441,445.3935 1196,445.1685 1196,444.8505 C1196,444.4365 1196.36452,444.1005 1196.81367,444.1005 L1275.14402,444.1005 C1275.59317,444.1005 1275.95769,444.4365 1275.95769,444.8505 C1275.95769,445.0755 1275.84378,445.2615 1275.67453,445.3995 L1289.82262,445.3995 C1289.65663,445.2615 1289.53946,445.0725 1289.53946,444.8505 C1289.53946,444.4365 1289.90399,444.1005 1290.35313,444.1005 L1499.18633,444.1005 C1499.63873,444.1005 1500,444.4365 1500,444.8505 Z M1499.18633,161.75 C1499.63873,161.75 1500,162.086 1500,162.5 C1500,162.914 1499.63873,163.25 1499.18633,163.25 L1196.81367,163.25 C1196.36452,163.25 1196,162.914 1196,162.5 C1196,162.086 1196.36452,161.75 1196.81367,161.75 L1499.18633,161.75 Z M1499.18692,192.75 C1499.63899,192.75 1500,193.086 1500,193.5 C1500,193.914 1499.63899,194.25 1499.18692,194.25 L1356.81308,194.25 C1356.36426,194.25 1356,193.914 1356,193.5 C1356,193.086 1356.36426,192.75 1356.81308,192.75 L1499.18692,192.75 Z M1302.18055,223.75 C1302.63289,223.75 1303,224.086 1303,224.5 C1303,224.914 1302.63289,225.25 1302.18055,225.25 L1196.81945,225.25 C1196.36711,225.25 1196,224.914 1196,224.5 C1196,224.086 1196.36711,223.75 1196.81945,223.75 L1302.18055,223.75 Z M1499.18451,223.75 C1499.63612,223.75 1500,224.086 1500,224.5 C1500,224.914 1499.63937,225.25 1499.18776,225.25 L1347.81224,225.25 C1347.36388,225.25 1347,224.914 1347,224.5 C1347,224.086 1347.36388,223.75 1347.81224,223.75 L1499.18451,223.75 Z M1196,255.5 C1196,255.086 1196.36537,254.75 1196.81557,254.75 L1477.18443,254.75 C1477.63789,254.75 1478,255.086 1478,255.5 C1478,255.914 1477.63789,256.25 1477.18443,256.25 L1196.81557,256.25 C1196.36537,256.25 1196,255.914 1196,255.5 Z M1246.18577,316.75 C1246.63848,316.75 1247,317.086 1247,317.5 C1247,317.914 1246.63523,318.25 1246.18577,318.25 L1196.81423,318.25 C1196.36477,318.25 1196,317.914 1196,317.5 C1196,317.086 1196.36477,316.75 1196.81423,316.75 L1246.18577,316.75 Z M1499.18496,316.75 C1499.63812,316.75 1500,317.086 1500,317.5 C1500,317.914 1499.63812,318.25 1499.18496,318.25 L1291.81504,318.25 C1291.36514,318.25 1291,317.914 1291,317.5 C1291,317.086 1291.36514,316.75 1291.81504,316.75 L1499.18496,316.75 Z M1422,348.5 C1422,348.914 1421.63884,349.25 1421.18657,349.25 L1196.81343,349.25 C1196.36442,349.25 1196,348.914 1196,348.5 C1196,348.086 1196.36442,347.75 1196.81343,347.75 L1421.18657,347.75 C1421.63884,347.75 1422,348.086 1422,348.5 Z M1499.18726,347.75 C1499.63914,347.75 1500,348.086 1500,348.5 C1500,348.914 1499.63914,349.25 1499.18726,349.25 L1485.81274,349.25 C1485.36411,349.25 1485,348.914 1485,348.5 C1485,348.086 1485.36411,347.75 1485.81274,347.75 L1499.18726,347.75 Z M1090,310.5 C1090,310.089 1090.36474,309.75 1090.81415,309.75 L1275.18585,309.75 C1275.63526,309.75 1276,310.086 1276,310.5 C1276,310.914 1275.63526,311.25 1275.18585,311.25 L1090.81415,311.25 C1090.36474,311.25 1090,310.914 1090,310.5 Z M1343.19582,309.75 C1343.64294,309.75 1344,310.086 1344,310.5 C1344,310.914 1343.64294,311.25 1343.19582,311.25 L1320.80418,311.25 C1320.35706,311.25 1320,310.914 1320,310.5 C1320,310.086 1320.35706,309.75 1320.80418,309.75 L1343.19582,309.75 Z M1343.18285,340.75 C1343.63538,340.75 1344,341.086 1344,341.5 C1344,341.914 1343.63863,342.25 1343.18611,342.25 L1080.81389,342.25 C1080.36462,342.25 1080,341.914 1080,341.5 C1080,341.086 1080.36462,340.75 1080.81389,340.75 L1343.18285,340.75 Z M1040.81467,373.25 C1040.36497,373.25 1040,372.914 1040,372.5 C1040,372.086 1040.36497,371.75 1040.81467,371.75 L1210.18533,371.75 C1210.63828,371.75 1211,372.086 1211,372.5 C1211,372.914 1210.63828,373.25 1210.18533,373.25 L1040.81467,373.25 Z M1343.19094,371.75 C1343.64078,371.75 1344,372.086 1344,372.5 C1344,372.914 1343.64078,373.25 1343.19094,373.25 L1274.80906,373.25 C1274.36246,373.25 1274,372.914 1274,372.5 C1274,372.086 1274.36246,371.75 1274.80906,371.75 L1343.19094,371.75 Z" transform="translate(-1040 -99)"/></svg>
