<svg xmlns="http://www.w3.org/2000/svg" width="24" height="19" viewBox="0 0 24 19"><path fill="#2A2E39" fill-rule="evenodd" d="M2.76923077,15.6465575 C1.74962815,15.6465575 0.923076923,14.8059332 0.923076923,13.7689706 L0.923076923,1.8775869 C0.923076923,0.84062429 1.74962815,-3.46389584e-14 2.76923077,-3.46389584e-14 L21.2307692,-3.46389584e-14 C22.2503718,-3.46389584e-14 23.0769231,0.84062429 23.0769231,1.8775869 L23.0769231,13.7689706 C23.0769231,14.8059332 22.2503718,15.6465575 21.2307692,15.6465575 L2.76923077,15.6465575 Z M2.76923077,1.8775869 L2.76923077,13.7689706 L21.2307692,13.7689706 L21.2307692,1.8775869 L2.76923077,1.8775869 Z M0,16.5669433 L24,16.5669433 L24,18.4077147 L0,18.4077147 L0,16.5669433 Z" transform="translate(0 .117)"/></svg>
